<svg xmlns="http://www.w3.org/2000/svg" xmlns:xlink="http://www.w3.org/1999/xlink" width="98.295" height="35" viewBox="0 0 98.295 35">
  <defs>
    <linearGradient id="linear-gradient" x1="0.919" y1="0.403" x2="0.283" y2="0.817" gradientUnits="objectBoundingBox">
      <stop offset="0" stop-color="#8a939b"/>
      <stop offset="0.18" stop-color="#8e9398"/>
      <stop offset="1" stop-color="#adb5bd"/>
    </linearGradient>
    <linearGradient id="linear-gradient-2" x1="0.087" y1="0.592" x2="0.722" y2="0.18" gradientUnits="objectBoundingBox">
      <stop offset="0" stop-color="#848a91"/>
      <stop offset="0.18" stop-color="#8e9195"/>
      <stop offset="1" stop-color="#adb5bd"/>
    </linearGradient>
  </defs>
  <g id="Layer_2" data-name="Layer 2" transform="translate(-0.003)">
    <g id="Blue" transform="translate(0.003)">
      <path id="Path_328" data-name="Path 328" d="M100.048,9h3.659V27.572c0,4.92-2.153,8.316-7.2,8.316a13,13,0,0,1-4.389-.693V31.637a10.251,10.251,0,0,0,3.779.693c3.091,0,4.158-1.848,4.158-4.514Z" transform="translate(-49.563 -4.842)" fill="#adb5bd"/>
      <path id="Path_329" data-name="Path 329" d="M128.783,5.9a2.282,2.282,0,0,1,2.439,2.439,2.439,2.439,0,0,1-4.879,0A2.282,2.282,0,0,1,128.783,5.9Zm-1.788,7.808h3.5V34.038h-3.5Z" transform="translate(-67.973 -3.173)" fill="#adb5bd"/>
      <path id="Path_330" data-name="Path 330" d="M146.76,22.439h3.414v3.576c1.178-2.4,3.234-4.107,7.2-3.862v3.414c-4.472-.462-7.2.9-7.2,5.2V42.78H146.76Z" transform="translate(-78.96 -11.906)" fill="#adb5bd"/>
      <path id="Path_331" data-name="Path 331" d="M187.721,38.995a7.162,7.162,0,0,1-6.87,4.065c-5.405,0-8.131-4.592-8.131-10.57,0-5.733,2.846-10.57,8.538-10.57a6.672,6.672,0,0,1,6.468,3.982V22.327h3.5V42.654h-3.5Zm-5.936.813c3.132,0,5.936-1.991,5.936-6.5V31.659c0-4.514-2.559-6.5-5.544-6.5-3.945,0-5.978,2.6-5.978,7.318.018,4.9,1.968,7.336,5.59,7.336Z" transform="translate(-92.927 -11.793)" fill="#adb5bd"/>
      <path id="Path_340" data-name="Path 340" d="M33.449,16.521,18.388,1.46,16.929,0h0L5.591,11.337h0L.408,16.521a1.386,1.386,0,0,0,0,1.959L10.766,28.837,16.929,35,28.266,23.663l.176-.176,5.008-5.008A1.386,1.386,0,0,0,33.449,16.521ZM16.929,22.674,11.754,17.5l5.174-5.174L22.1,17.5Z" transform="translate(-0.003)" fill="#adb5bd"/>
      <path id="Path_341" data-name="Path 341" d="M23.41,12.374A8.713,8.713,0,0,1,23.373.09L12.05,11.409l6.163,6.163Z" transform="translate(-6.484 -0.048)" fill="url(#linear-gradient)"/>
      <path id="Path_342" data-name="Path 342" d="M41.828,37.85,36.64,43.038a8.713,8.713,0,0,1,0,12.326h0L47.991,44.013Z" transform="translate(-19.714 -20.364)" fill="url(#linear-gradient-2)"/>
    </g>
  </g>
</svg>
