<svg xmlns="http://www.w3.org/2000/svg" width="170.455" height="33" viewBox="0 0 170.455 33">
  <g id="salesforca-seeklogo.com" transform="translate(54.83 -56.752)">
    <path id="Path_343" data-name="Path 343" d="M19.748-175.535a8.262,8.262,0,0,1,5.979-2.567A8.347,8.347,0,0,1,33-173.79a10.05,10.05,0,0,1,4.111-.874,10.209,10.209,0,0,1,10.164,10.253,10.209,10.209,0,0,1-10.164,10.253,10.091,10.091,0,0,1-2-.2,7.428,7.428,0,0,1-6.485,3.806,7.4,7.4,0,0,1-3.25-.748,8.479,8.479,0,0,1-7.8,5.165,8.481,8.481,0,0,1-7.955-5.549A7.776,7.776,0,0,1,8-151.514a7.91,7.91,0,0,1-7.869-7.951,7.964,7.964,0,0,1,3.935-6.887,9.1,9.1,0,0,1-.754-3.637,9.151,9.151,0,0,1,9.157-9.145,9.146,9.146,0,0,1,7.281,3.6" transform="translate(-54.958 235.886)" fill="#adb5bd"/>
    <path id="Path_344" data-name="Path 344" d="M37.147-83.851c-.095.248.035.3.065.343a8.858,8.858,0,0,0,.865.522A9.216,9.216,0,0,0,42.6-81.928c3.1,0,5.032-1.652,5.032-4.31v-.052c0-2.458-2.176-3.351-4.217-4l-.265-.086c-1.539-.5-2.868-.931-2.868-1.945v-.054c0-.867.776-1.505,1.979-1.505a8.951,8.951,0,0,1,3.946,1.009s.3.194.41-.1c.06-.155.578-1.548.632-1.7a.289.289,0,0,0-.151-.349,8.8,8.8,0,0,0-4.448-1.195l-.31,0c-2.842,0-4.825,1.716-4.825,4.176v.052c0,2.594,2.189,3.435,4.239,4.021l.33.1c1.494.459,2.781.854,2.781,1.906v.052c0,.962-.837,1.677-2.186,1.677a7.342,7.342,0,0,1-4-1.151c-.218-.127-.345-.22-.513-.321a.246.246,0,0,0-.407.14l-.612,1.7Z" transform="translate(-35.486 162.031)" fill="#adb5bd"/>
    <path id="Path_345" data-name="Path 345" d="M113.946-83.851c-.1.248.034.3.065.343a8.852,8.852,0,0,0,.865.522,9.215,9.215,0,0,0,4.526,1.059c3.1,0,5.033-1.652,5.033-4.31v-.052c0-2.458-2.176-3.351-4.218-4l-.265-.086c-1.539-.5-2.868-.931-2.868-1.945v-.054c0-.867.777-1.505,1.98-1.505a8.952,8.952,0,0,1,3.946,1.009s.3.194.41-.1c.06-.155.578-1.548.632-1.7a.289.289,0,0,0-.151-.349,8.8,8.8,0,0,0-4.448-1.195l-.311,0c-2.842,0-4.825,1.716-4.825,4.176v.052c0,2.594,2.188,3.435,4.239,4.021l.33.1c1.494.459,2.784.854,2.784,1.906v.052c0,.962-.839,1.677-2.189,1.677a7.342,7.342,0,0,1-4-1.151c-.218-.127-.347-.216-.511-.321a.265.265,0,0,0-.41.14l-.612,1.7Z" transform="translate(-66.832 162.031)" fill="#adb5bd"/>
    <path id="Path_346" data-name="Path 346" d="M159.72-89.015a6.389,6.389,0,0,1-.832,3.523,2.786,2.786,0,0,1-2.523,1.231,2.75,2.75,0,0,1-2.512-1.231,6.462,6.462,0,0,1-.819-3.523,6.4,6.4,0,0,1,.819-3.51,2.764,2.764,0,0,1,2.512-1.218,2.8,2.8,0,0,1,2.525,1.218,6.343,6.343,0,0,1,.83,3.51m2.592-2.786a6.234,6.234,0,0,0-1.18-2.251,5.7,5.7,0,0,0-1.99-1.514,6.547,6.547,0,0,0-2.777-.556,6.55,6.55,0,0,0-2.779.556,5.731,5.731,0,0,0-1.992,1.514,6.345,6.345,0,0,0-1.18,2.251,9.858,9.858,0,0,0-.379,2.786,9.847,9.847,0,0,0,.379,2.786,6.275,6.275,0,0,0,1.182,2.251,5.559,5.559,0,0,0,1.99,1.5,6.693,6.693,0,0,0,2.779.543,6.688,6.688,0,0,0,2.777-.543,5.566,5.566,0,0,0,1.99-1.5,6.235,6.235,0,0,0,1.18-2.251,9.785,9.785,0,0,0,.382-2.786,9.784,9.784,0,0,0-.382-2.786" transform="translate(-81.575 161.987)" fill="#adb5bd"/>
    <path id="Path_347" data-name="Path 347" d="M199.854-84.637a.245.245,0,0,0-.33-.157,5.944,5.944,0,0,1-1.205.345,9.38,9.38,0,0,1-1.421.1,3.947,3.947,0,0,1-2.965-1.11A4.945,4.945,0,0,1,192.821-89a5.494,5.494,0,0,1,.994-3.413,3.384,3.384,0,0,1,2.876-1.266,8.616,8.616,0,0,1,2.738.392s.2.088.3-.179c.226-.63.395-1.08.636-1.772a.233.233,0,0,0-.16-.3,10.1,10.1,0,0,0-1.729-.436,12.97,12.97,0,0,0-1.945-.132,7.049,7.049,0,0,0-2.889.556,5.983,5.983,0,0,0-2.087,1.511,6.429,6.429,0,0,0-1.261,2.251,8.957,8.957,0,0,0-.423,2.79,7.462,7.462,0,0,0,1.725,5.16,6.558,6.558,0,0,0,5.117,1.925,10.549,10.549,0,0,0,3.67-.655.236.236,0,0,0,.105-.308l-.636-1.757Z" transform="translate(-97.836 161.962)" fill="#adb5bd"/>
    <path id="Path_348" data-name="Path 348" d="M212.285-90.46a5.1,5.1,0,0,1,.71-2.07A2.792,2.792,0,0,1,215.5-93.8a2.723,2.723,0,0,1,2.458,1.272,4.333,4.333,0,0,1,.582,2.07Zm8.726-1.835a5.458,5.458,0,0,0-1.123-2.053,5.155,5.155,0,0,0-1.665-1.27,6.414,6.414,0,0,0-2.514-.509,6.843,6.843,0,0,0-2.9.563,5.763,5.763,0,0,0-2.021,1.542,6.319,6.319,0,0,0-1.188,2.277,9.836,9.836,0,0,0-.386,2.8,9.385,9.385,0,0,0,.4,2.8,5.787,5.787,0,0,0,1.272,2.229,5.768,5.768,0,0,0,2.206,1.462,8.836,8.836,0,0,0,3.185.515,9.164,9.164,0,0,0,4.418-.878c.1-.054.19-.149.073-.42l-.574-1.606a.252.252,0,0,0-.33-.151,8.466,8.466,0,0,1-3.6.647,4.159,4.159,0,0,1-3-1.031,4.151,4.151,0,0,1-1.022-2.919l8.774.009a.26.26,0,0,0,.255-.229,9.417,9.417,0,0,0-.261-3.78Z" transform="translate(-105.731 161.992)" fill="#adb5bd"/>
    <path id="Path_349" data-name="Path 349" d="M93.569-90.46a5.129,5.129,0,0,1,.709-2.07A2.792,2.792,0,0,1,96.785-93.8a2.728,2.728,0,0,1,2.46,1.272,4.352,4.352,0,0,1,.58,2.07Zm8.724-1.835a5.448,5.448,0,0,0-1.122-2.053,5.154,5.154,0,0,0-1.664-1.27,6.414,6.414,0,0,0-2.514-.509,6.851,6.851,0,0,0-2.9.563,5.76,5.76,0,0,0-2.02,1.542,6.321,6.321,0,0,0-1.188,2.277,9.926,9.926,0,0,0-.386,2.8,9.383,9.383,0,0,0,.4,2.8,5.79,5.79,0,0,0,1.272,2.229,5.766,5.766,0,0,0,2.206,1.462,8.834,8.834,0,0,0,3.185.515,9.166,9.166,0,0,0,4.418-.878c.1-.054.19-.149.073-.42l-.571-1.606a.254.254,0,0,0-.332-.151,8.464,8.464,0,0,1-3.6.647,4.157,4.157,0,0,1-3-1.031,4.151,4.151,0,0,1-1.022-2.919l8.773.009a.26.26,0,0,0,.255-.229,9.386,9.386,0,0,0-.263-3.78Z" transform="translate(-57.277 161.992)" fill="#adb5bd"/>
    <path id="Path_350" data-name="Path 350" d="M61.151-84.7a1.777,1.777,0,0,1-.507-.52,2.121,2.121,0,0,1-.261-1.141,1.92,1.92,0,0,1,.783-1.7,3.931,3.931,0,0,1,2.544-.634,18,18,0,0,1,2.38.2V-84.5h0a17.822,17.822,0,0,1-2.37.315,3.944,3.944,0,0,1-2.572-.513m3.491-6.164c-.356-.026-.817-.041-1.369-.041a8.32,8.32,0,0,0-2.16.278,5.634,5.634,0,0,0-1.833.85,4.229,4.229,0,0,0-1.272,1.447,4.23,4.23,0,0,0-.468,2.022,4.584,4.584,0,0,0,.4,2,3.611,3.611,0,0,0,1.145,1.371,4.8,4.8,0,0,0,1.787.774,10.481,10.481,0,0,0,2.322.237,15.842,15.842,0,0,0,2.665-.222c.86-.147,1.917-.36,2.21-.427s.615-.157.615-.157a.275.275,0,0,0,.2-.287l0-8.023a4.911,4.911,0,0,0-1.4-3.872,5.968,5.968,0,0,0-4.03-1.214,14.437,14.437,0,0,0-2.35.218,8.473,8.473,0,0,0-2.706.987.274.274,0,0,0-.078.349l.621,1.669a.222.222,0,0,0,.287.142,1.13,1.13,0,0,0,.144-.071,8.9,8.9,0,0,1,3.823-.89,3.532,3.532,0,0,1,2.169.567c.479.367.722.921.722,2.089v.371c-.755-.108-1.447-.17-1.447-.17" transform="translate(-43.823 161.975)" fill="#adb5bd"/>
    <path id="Path_351" data-name="Path 351" d="M183.513-95.06a.236.236,0,0,0-.131-.315,7.611,7.611,0,0,0-1.471-.252,4.37,4.37,0,0,0-2.261.364,3.991,3.991,0,0,0-1.484,1.093v-1.067a.255.255,0,0,0-.252-.267h-2.249a.255.255,0,0,0-.252.267v13.086a.269.269,0,0,0,.268.267h2.3a.267.267,0,0,0,.265-.267v-6.537a7.657,7.657,0,0,1,.291-2.3,3.318,3.318,0,0,1,.768-1.292,2.7,2.7,0,0,1,1.085-.651,4.228,4.228,0,0,1,1.177-.166,4.917,4.917,0,0,1,.964.119c.168.019.263-.084.319-.237.151-.4.578-1.6.66-1.841" transform="translate(-91.933 161.652)" fill="#adb5bd"/>
    <path id="Path_352" data-name="Path 352" d="M142.1-105.967a7.577,7.577,0,0,0-.867-.207,6.865,6.865,0,0,0-1.192-.091,5.022,5.022,0,0,0-3.715,1.332,7.243,7.243,0,0,0-1.764,3.98l-.108.593h-1.992a.3.3,0,0,0-.293.254l-.326,1.826c-.024.173.051.283.285.283h1.938L132.1-87.016a13.51,13.51,0,0,1-.526,2.163,4.422,4.422,0,0,1-.612,1.248,1.631,1.631,0,0,1-.8.619,3.262,3.262,0,0,1-1.033.149,3.874,3.874,0,0,1-.7-.078,2.081,2.081,0,0,1-.475-.153.242.242,0,0,0-.317.14c-.071.188-.589,1.608-.651,1.783a.265.265,0,0,0,.136.351,7.142,7.142,0,0,0,.8.235,5.324,5.324,0,0,0,1.286.121,6.428,6.428,0,0,0,2.154-.334,4.069,4.069,0,0,0,1.622-1.13,5.789,5.789,0,0,0,1.138-1.964,16.619,16.619,0,0,0,.772-2.945L136.871-98h2.889a.3.3,0,0,0,.293-.257l.328-1.824c.021-.175-.051-.282-.287-.282h-2.8a12.122,12.122,0,0,1,.463-1.979,2.583,2.583,0,0,1,.614-.936,1.846,1.846,0,0,1,.736-.458,3.05,3.05,0,0,1,.942-.134,3.639,3.639,0,0,1,.72.072c.272.058.378.088.449.109.287.086.325,0,.382-.136l.671-1.841a.235.235,0,0,0-.162-.307" transform="translate(-72.159 166.494)" fill="#adb5bd"/>
    <path id="Path_353" data-name="Path 353" d="M84.371-76.649a.254.254,0,0,1-.252.265H81.792a.253.253,0,0,1-.25-.265V-95.373a.253.253,0,0,1,.25-.265h2.326a.254.254,0,0,1,.252.265v18.724Z" transform="translate(-53.62 156.15)" fill="#adb5bd"/>
  </g>
</svg>
