<svg xmlns="http://www.w3.org/2000/svg" width="185.821" height="38" viewBox="0 0 185.821 38">
  <g id="Layer_1" data-name="Layer 1" transform="translate(-0.004 0.008)">
    <rect id="Rectangle_27" data-name="Rectangle 27" width="22.2" height="3.851" rx="1.685" transform="translate(13.946 12.255)" fill="#adb5bd"/>
    <rect id="Rectangle_28" data-name="Rectangle 28" width="22.2" height="3.851" rx="1.685" transform="translate(0.21 21.879)" fill="#adb5bd"/>
    <path id="Path_354" data-name="Path 354" d="M2.875,14.891a.722.722,0,0,0,.872-.491,15.151,15.151,0,0,1,17.7-10.2.71.71,0,0,0,.832-.516l.627-2.338a.72.72,0,0,0-.545-.887A19,19,0,0,0,.034,13.373a.713.713,0,0,0,.5.891Z" transform="translate(0 0)" fill="#adb5bd" fill-rule="evenodd"/>
    <path id="Path_355" data-name="Path 355" d="M51.662,54.333a.722.722,0,0,0-.872.49,15.151,15.151,0,0,1-17.7,10.2.71.71,0,0,0-.832.516l-.626,2.338a.72.72,0,0,0,.545.887A19,19,0,0,0,54.5,55.851a.713.713,0,0,0-.5-.891Z" transform="translate(-18.174 -31.239)" fill="#adb5bd" fill-rule="evenodd"/>
    <circle id="Ellipse_25" data-name="Ellipse 25" cx="2.111" cy="2.111" r="2.111" transform="translate(27.043 3.804)" fill="#adb5bd"/>
    <circle id="Ellipse_26" data-name="Ellipse 26" cx="2.111" cy="2.111" r="2.111" transform="translate(5.097 29.958)" fill="#adb5bd"/>
    <path id="Path_356" data-name="Path 356" d="M152.092,18.266a8.068,8.068,0,0,1,6.086-2.636,6.273,6.273,0,0,1,5.046,2V16.541a.612.612,0,0,1,.575-.581h2.93a.612.612,0,0,1,.569.581V32.806a9.9,9.9,0,0,1-1.994,6.38c-1.578,1.92-3.976,2.893-7.126,2.893-4.38,0-7.836-2.771-8.4-6.729a.613.613,0,0,1,.441-.648l2.863-.673.045-.008a.575.575,0,0,1,.653.486,4.33,4.33,0,0,0,4.4,3.823c3.419,0,5.009-1.756,5.009-5.426V31.479a6.428,6.428,0,0,1-5.009,2.147c-4.869,0-8.4-3.78-8.4-8.979a9.462,9.462,0,0,1,2.312-6.38Zm56.8-2.863h.153c5.234.072,8.477,3.716,8.477,9.547a8.781,8.781,0,0,1-.05.924.567.567,0,0,1-.562.514H204.47a4.784,4.784,0,0,0,4.851,4.643,4.362,4.362,0,0,0,4.453-3.107.575.575,0,0,1,.716-.343l2.484.875a.531.531,0,0,1,.324.294.563.563,0,0,1,.031.434,8.192,8.192,0,0,1-8.007,5.566,8.837,8.837,0,0,1-6.313-2.563,9.871,9.871,0,0,1-2.71-7.163c0-6.025,4.374-9.622,8.6-9.622Zm-70.393,0c5.328,0,8.637,3.658,8.637,9.548a8.9,8.9,0,0,1-.049.924.563.563,0,0,1-.563.514H134.084a4.783,4.783,0,0,0,4.869,4.643,4.355,4.355,0,0,0,4.453-3.107.569.569,0,0,1,.716-.343l2.484.875a.532.532,0,0,1,.324.294.562.562,0,0,1,0,.434,8.191,8.191,0,0,1-8,5.566,8.839,8.839,0,0,1-6.325-2.563,9.9,9.9,0,0,1-2.71-7.163c0-6.025,4.374-9.622,8.6-9.622ZM119.655,15.4a8.989,8.989,0,0,1,5.756,1.725,6.258,6.258,0,0,1,2.061,2.991v0a.391.391,0,0,1-.288.472l-2.967.979a.556.556,0,0,1-.41,0,.433.433,0,0,1-.232-.269c-.251-.96-1.113-2.575-3.921-2.575-1.957,0-3.132,1.125-3.132,2.214,0,.722.373,1.651,2.141,1.988l3.267.612c3.645.734,5.731,2.728,5.731,5.505L127.65,29c0,2.765-2.655,5.707-7.585,5.707-5.719,0-7.964-3.236-8.38-5.144a.409.409,0,0,1,.306-.453l3.058-.954a.513.513,0,0,1,.165,0,.507.507,0,0,1,.251.061.421.421,0,0,1,.226.275c.386,1.835,2.044,2.93,4.429,2.93,2.22,0,3.23-1.162,3.23-2.214s-.9-1.829-2.447-2.141l-3.431-.667c-3.2-.606-5.193-2.594-5.193-5.181,0-3.15,3.383-5.817,7.377-5.817Zm126.037-5.1a.612.612,0,0,1,.575.612v5.022h3.216a.613.613,0,0,1,.57.612v2.667a.576.576,0,0,1-.57.581h-3.216V28.72c0,1.48.586,2.092,2.1,2.092a7.831,7.831,0,0,0,1.028-.086.569.569,0,0,1,.465.129.617.617,0,0,1,.2.44v2.514a.576.576,0,0,1-.411.557,7.951,7.951,0,0,1-2.263.294c-3.224,0-5.224-2.074-5.224-5.419V19.832h-2.783a.611.611,0,0,1-.575-.581V16.572a.611.611,0,0,1,.575-.612h.722a2.144,2.144,0,0,0,2.349-2.392V10.914a.611.611,0,0,1,.575-.612ZM185.3,18.395a6.625,6.625,0,0,1,5.835-2.991h-.006c3.181,0,6.392,2.239,6.392,7.132V33.864a.611.611,0,0,1-.575.581h-2.93a.613.613,0,0,1-.575-.581V22.9c0-1.389-.434-3.725-3.37-3.725-2.148,0-3.671,1.688-3.671,4.135V33.864a.611.611,0,0,1-.575.581H182.86a.611.611,0,0,1-.575-.581V22.9c0-1.389-.434-3.725-3.371-3.725-2.233,0-3.737,1.676-3.737,4.172V33.864a.613.613,0,0,1-.575.581h-2.93a.611.611,0,0,1-.569-.581V16.5a.611.611,0,0,1,.569-.581h2.82a.612.612,0,0,1,.575.581v1.046a6.586,6.586,0,0,1,4.954-2.147,5.853,5.853,0,0,1,5.279,2.991ZM229.972,15.4a6.19,6.19,0,0,1,4.967,2.159,8.091,8.091,0,0,1,1.639,5.23V33.864a.612.612,0,0,1-.569.581h-2.966a.613.613,0,0,1-.576-.581V23.386c0-2.74-1.29-4.135-3.737-4.135a3.4,3.4,0,0,0-2.783,1.3,5.364,5.364,0,0,0-.954,3.248V33.864a.613.613,0,0,1-.575.581h-2.961a.611.611,0,0,1-.575-.581V16.492a.611.611,0,0,1,.575-.581h2.894a.612.612,0,0,1,.569.581v1.223a6.367,6.367,0,0,1,5.052-2.312Zm-71.286,3.884c-2.887,0-4.722,2.055-4.722,5.358S155.774,30,158.686,30c2.777,0,4.649-2.153,4.649-5.352s-1.872-5.358-4.649-5.358Zm-20.155-.165a4.282,4.282,0,0,0-4.325,3.8h8.7a4.042,4.042,0,0,0-4.379-3.8Zm70.41,0a4.282,4.282,0,0,0-4.325,3.8h8.7a4.043,4.043,0,0,0-4.38-3.8Z" transform="translate(-64.228 -5.929)" fill="#adb5bd" fill-rule="evenodd"/>
  </g>
</svg>
